<?xml version="1.0" encoding="utf-8"?>
<!-- Generator: Adobe Illustrator 25.4.1, SVG Export Plug-In . SVG Version: 6.00 Build 0)  -->
<svg version="1.1" id="Layer_1" xmlns="http://www.w3.org/2000/svg" xmlns:xlink="http://www.w3.org/1999/xlink" x="0px" y="0px"
	 viewBox="0 0 687.9 189.4" style="enable-background:new 0 0 687.9 189.4;" xml:space="preserve">
<style type="text/css">
	.st0{display:none;fill:#9B9B9B;}
	.st1{fill:#FFFFFF;}
</style>
<rect x="-156" y="-405.4" class="st0" width="1000" height="1000"/>
<g>
	<g>
		<g>
			<path class="st1" d="M208.8,145.4V59.7h15.9v35.4H267V59.7h15.9v85.7H267v-36.6h-42.3v36.6H208.8z"/>
			<path class="st1" d="M331.8,145.4h-16.3l36.4-85.7H369l37.2,85.7h-17.1l-9.8-23.4h-28.5l5.5-13.8h17.3L360,76L331.8,145.4z"/>
			<path class="st1" d="M437.3,141.8v-14.4c8.6,3.2,18.3,4.8,29.1,4.8c13.1,0,19.7-4.4,19.7-13.2c0-6.4-4-9.6-12.1-9.6h-13.4
				c-17.5,0-26.3-8-26.3-24c0-17.6,12.5-26.4,37.5-26.4c9.6,0,18.7,1.4,27.3,4.2v14.4c-8.6-3.2-17.7-4.8-27.3-4.8
				c-14.4,0-21.6,4.2-21.6,12.6c0,6.4,3.5,9.6,10.4,9.6H474c18.7,0,28,8,28,24c0,18-11.9,27-35.6,27
				C455.6,146,445.9,144.6,437.3,141.8z"/>
			<path class="st1" d="M599.4,59.7v13.7h-42.9V95h40.9v14.2h-41.1v22.4h43.9v13.8h-59.5V59.7L599.4,59.7L599.4,59.7z"/>
			<path class="st1" d="M653.9,59.7v71.9h34v13.8H638V59.7L653.9,59.7L653.9,59.7z"/>
		</g>
	</g>
	<g>
		<path class="st1" d="M162.6,77.8v-25h-25V39.3H99H60.4v38.6H21.8v38.6h13.5v25h25V155h21.5v25.1h-23v9.3h32.3V155h7.7h6.7v34.4
			H138v-9.3h-23V155h22.5v-13.5h25v-25H176V77.9h-13.4V77.8z M98.9,116.3v-21h-8.2v21h-7.4V77.7h15.6v17.5l0,0L98.9,116.3
			L98.9,116.3z M121.7,116.3V77.7h15.8v17.5h-8.3v21h-7.5V116.3z"/>
		<rect x="10.2" y="29.2" class="st1" width="32.6" height="32.6"/>
		<rect x="52.1" y="2.7" class="st1" width="20.7" height="20.7"/>
		<rect x="14.3" class="st1" width="15.2" height="15.2"/>
		<rect y="73.6" class="st1" width="10.2" height="10.2"/>
		<rect x="86.6" y="13.1" class="st1" width="10.2" height="10.2"/>
	</g>
</g>
</svg>
